<?xml version="1.0" encoding="UTF-8" standalone="no"?>
<!DOCTYPE svg PUBLIC "-//W3C//DTD SVG 1.1//EN" "http://www.w3.org/Graphics/SVG/1.1/DTD/svg11.dtd">
<svg width="100%" height="100%" viewBox="0 0 256 84" version="1.1" xmlns="http://www.w3.org/2000/svg" xmlns:xlink="http://www.w3.org/1999/xlink" xml:space="preserve" xmlns:serif="http://www.serif.com/" style="fill-rule:evenodd;clip-rule:evenodd;stroke-linejoin:bevel;stroke-miterlimit:1.5;">
    <g transform="matrix(1,0,0,1,10,3)">
        <path d="M9.412,67.955L94.202,1.292L94.169,74.617L55.476,44.151" style="fill:none;stroke:rgb(40,40,40);stroke-width:2px;"/>
        <path d="M1.46,74.695L1.183,1L41.801,32.609" style="fill:none;stroke:rgb(40,40,40);stroke-width:2px;"/>
        <g transform="matrix(1.23102,0,0,1.39458,118.947,-117.415)">
            <path d="M6.909,101.389L6.909,96.507C6.909,96.389 6.927,96.052 6.962,95.496L6.943,95.496C6.844,95.755 6.761,95.954 6.694,96.095L4.248,101.389L4.095,101.389L1.64,96.124C1.56,95.954 1.485,95.739 1.414,95.477L1.39,95.477C1.413,95.783 1.424,96.089 1.424,96.392L1.424,101.389L0.949,101.389L0.949,94.513L1.39,94.513L3.956,100.051C3.972,100.083 3.989,100.126 4.009,100.18C4.028,100.235 4.048,100.289 4.071,100.343C4.103,100.426 4.136,100.519 4.172,100.621L4.2,100.621L4.253,100.468C4.256,100.455 4.311,100.303 4.416,100.013L6.943,94.513L7.365,94.513L7.365,101.389L6.909,101.389Z" style="fill:none;fill-rule:nonzero;stroke:rgb(46,42,42);stroke-width:0.7px;stroke-linejoin:round;stroke-miterlimit:1.41421;"/>
            <path d="M18.803,101.389L18.016,99.25L15.034,99.25L14.248,101.389L13.725,101.389L16.319,94.513L16.77,94.513L19.335,101.389L18.803,101.389ZM16.693,95.635C16.658,95.539 16.629,95.445 16.607,95.352C16.584,95.272 16.56,95.192 16.535,95.112L16.516,95.112C16.461,95.323 16.408,95.494 16.357,95.625L15.202,98.814L17.853,98.814L16.693,95.635Z" style="fill:none;fill-rule:nonzero;stroke:rgb(46,42,42);stroke-width:0.7px;stroke-linejoin:round;stroke-miterlimit:1.41421;"/>
            <path d="M30.557,101.389L26.462,95.831C26.379,95.719 26.305,95.608 26.242,95.496L26.179,95.4L26.16,95.4C26.166,95.483 26.17,95.584 26.17,95.702L26.17,101.389L25.695,101.389L25.695,94.513L26.059,94.513L30.125,100.022C30.215,100.144 30.312,100.291 30.418,100.463L30.442,100.463C30.426,100.239 30.418,100.048 30.418,99.888L30.418,94.513L30.893,94.513L30.893,101.389L30.557,101.389Z" style="fill:none;fill-rule:nonzero;stroke:rgb(46,42,42);stroke-width:0.7px;stroke-linejoin:round;stroke-miterlimit:1.41421;"/>
            <path d="M39.717,94.949L39.717,101.389L39.247,101.389L39.247,94.949L37.262,94.949L37.262,94.513L41.702,94.513L41.702,94.949L39.717,94.949Z" style="fill:none;fill-rule:nonzero;stroke:rgb(46,42,42);stroke-width:0.7px;stroke-linejoin:round;stroke-miterlimit:1.41421;"/>
            <path d="M51.428,101.389L50.642,99.25L47.659,99.25L46.873,101.389L46.35,101.389L48.944,94.513L49.395,94.513L51.96,101.389L51.428,101.389ZM49.318,95.635C49.283,95.539 49.254,95.445 49.232,95.352C49.21,95.272 49.186,95.192 49.16,95.112L49.141,95.112C49.087,95.323 49.034,95.494 48.983,95.625L47.827,98.814L50.479,98.814L49.318,95.635Z" style="fill:none;fill-rule:nonzero;stroke:rgb(46,42,42);stroke-width:0.7px;stroke-linejoin:round;stroke-miterlimit:1.41421;"/>
            <path d="M58.32,101.389L58.32,94.513L58.795,94.513L58.795,100.957L61.552,100.957L61.552,101.389L58.32,101.389Z" style="fill:none;fill-rule:nonzero;stroke:rgb(46,42,42);stroke-width:0.7px;stroke-linejoin:round;stroke-miterlimit:1.41421;"/>
            <path d="M68.013,101.389L68.013,94.513L71.225,94.513L71.225,94.949L68.487,94.949L68.487,97.706L71.029,97.706L71.029,98.138L68.487,98.138L68.487,100.957L71.384,100.957L71.384,101.389L68.013,101.389Z" style="fill:none;fill-rule:nonzero;stroke:rgb(46,42,42);stroke-width:0.7px;stroke-linejoin:round;stroke-miterlimit:1.41421;"/>
            <path d="M82.98,101.389L78.885,95.831C78.802,95.719 78.728,95.608 78.664,95.496L78.602,95.4L78.583,95.4C78.589,95.483 78.592,95.584 78.592,95.702L78.592,101.389L78.118,101.389L78.118,94.513L78.482,94.513L82.548,100.022C82.638,100.144 82.735,100.291 82.841,100.463L82.865,100.463C82.849,100.239 82.841,100.048 82.841,99.888L82.841,94.513L83.315,94.513L83.315,101.389L82.98,101.389Z" style="fill:none;fill-rule:nonzero;stroke:rgb(46,42,42);stroke-width:0.7px;stroke-linejoin:round;stroke-miterlimit:1.41421;"/>
            <path d="M94.753,101.389L93.967,99.25L90.984,99.25L90.198,101.389L89.675,101.389L92.269,94.513L92.72,94.513L95.285,101.389L94.753,101.389ZM92.643,95.635C92.608,95.539 92.579,95.445 92.557,95.352C92.535,95.272 92.511,95.192 92.485,95.112L92.466,95.112C92.411,95.323 92.359,95.494 92.308,95.625L91.152,98.814L93.804,98.814L92.643,95.635Z" style="fill:none;fill-rule:nonzero;stroke:rgb(46,42,42);stroke-width:0.7px;stroke-linejoin:round;stroke-miterlimit:1.41421;"/>
            <path d="M0.949,115.137L0.949,108.261L2.757,108.261C3.297,108.261 3.727,108.406 4.047,108.697C4.367,108.988 4.526,109.373 4.526,109.853C4.526,110.252 4.42,110.598 4.208,110.891C3.995,111.183 3.698,111.39 3.318,111.512L3.318,111.531C3.794,111.576 4.17,111.746 4.445,112.042C4.72,112.337 4.857,112.714 4.857,113.171C4.857,113.749 4.67,114.222 4.296,114.588C3.922,114.954 3.422,115.137 2.795,115.137L0.949,115.137ZM1.424,108.697L1.424,111.358L2.383,111.358C2.882,111.358 3.281,111.23 3.582,110.975C3.882,110.719 4.032,110.372 4.032,109.934C4.032,109.109 3.545,108.697 2.57,108.697L1.424,108.697ZM1.424,111.79L1.424,114.705L2.7,114.705C3.24,114.705 3.653,114.576 3.939,114.317C4.225,114.058 4.368,113.69 4.368,113.214C4.368,112.264 3.724,111.79 2.436,111.79L1.424,111.79Z" style="fill:none;fill-rule:nonzero;stroke:rgb(46,42,42);stroke-width:0.7px;stroke-linejoin:round;stroke-miterlimit:1.41421;"/>
            <path d="M24.674,115.137L23.888,112.998L20.906,112.998L20.119,115.137L19.597,115.137L22.191,108.261L22.641,108.261L25.207,115.137L24.674,115.137ZM22.565,109.383C22.53,109.287 22.501,109.193 22.478,109.1C22.456,109.02 22.432,108.94 22.406,108.86L22.387,108.86C22.333,109.071 22.28,109.242 22.229,109.373L21.073,112.562L23.725,112.562L22.565,109.383Z" style="fill:none;fill-rule:nonzero;stroke:rgb(46,42,42);stroke-width:0.7px;stroke-linejoin:round;stroke-miterlimit:1.41421;"/>
            <path d="M40.752,108.697L40.752,111.502L43.293,111.502L43.293,111.934L40.752,111.934L40.752,115.137L40.277,115.137L40.277,108.261L43.49,108.261L43.49,108.697L40.752,108.697Z" style="fill:none;fill-rule:nonzero;stroke:rgb(46,42,42);stroke-width:0.7px;stroke-linejoin:round;stroke-miterlimit:1.41421;"/>
            <rect x="58.747" y="108.261" width="0.475" height="6.876" style="fill:none;stroke:rgb(46,42,42);stroke-width:0.7px;stroke-linejoin:round;stroke-miterlimit:1.41421;"/>
            <path d="M76.756,108.697L76.756,115.137L76.287,115.137L76.287,108.697L74.301,108.697L74.301,108.261L78.742,108.261L78.742,108.697L76.756,108.697Z" style="fill:none;fill-rule:nonzero;stroke:rgb(46,42,42);stroke-width:0.7px;stroke-linejoin:round;stroke-miterlimit:1.41421;"/>
            <rect x="93.817" y="108.261" width="0.475" height="6.876" style="fill:none;stroke:rgb(46,42,42);stroke-width:0.7px;stroke-linejoin:round;stroke-miterlimit:1.41421;"/>
            <path d="M5.428,128.885L4.641,126.746L1.659,126.746L0.873,128.885L0.35,128.885L2.944,122.009L3.395,122.009L5.96,128.885L5.428,128.885ZM3.318,123.131C3.283,123.035 3.254,122.941 3.232,122.848C3.209,122.768 3.185,122.688 3.16,122.608L3.141,122.608C3.086,122.819 3.034,122.99 2.982,123.121L1.827,126.31L4.478,126.31L3.318,123.131Z" style="fill:none;fill-rule:nonzero;stroke:rgb(46,42,42);stroke-width:0.7px;stroke-linejoin:round;stroke-miterlimit:1.41421;"/>
            <path d="M16.596,128.885L15.68,126.871C15.491,126.455 15.303,126.176 15.114,126.034C14.925,125.892 14.689,125.821 14.404,125.821L13.551,125.821L13.551,128.885L13.076,128.885L13.076,122.009L14.985,122.009C15.592,122.009 16.069,122.173 16.416,122.5C16.763,122.828 16.936,123.26 16.936,123.797C16.936,124.293 16.794,124.707 16.509,125.039C16.225,125.372 15.827,125.586 15.315,125.682L15.315,125.701C15.587,125.809 15.852,126.14 16.111,126.693L17.133,128.885L16.596,128.885ZM13.551,122.445L13.551,125.389L14.735,125.389C15.259,125.389 15.676,125.252 15.984,124.977C16.293,124.702 16.447,124.325 16.447,123.845C16.447,123.407 16.308,123.064 16.03,122.817C15.752,122.569 15.354,122.445 14.836,122.445L13.551,122.445Z" style="fill:none;fill-rule:nonzero;stroke:rgb(46,42,42);stroke-width:0.7px;stroke-linejoin:round;stroke-miterlimit:1.41421;"/>
            <path d="M29.048,128.659C28.492,128.889 27.912,129.004 27.308,129.004C26.368,129.004 25.602,128.689 25.009,128.058C24.416,127.426 24.119,126.602 24.119,125.586C24.119,124.47 24.441,123.576 25.083,122.903C25.726,122.23 26.542,121.894 27.533,121.894C28.061,121.894 28.566,121.978 29.048,122.148L29.048,122.651C28.566,122.434 28.057,122.325 27.524,122.325C26.661,122.325 25.959,122.618 25.419,123.203C24.878,123.788 24.608,124.566 24.608,125.538C24.608,126.474 24.866,127.214 25.383,127.755C25.899,128.297 26.553,128.568 27.346,128.568C27.979,128.568 28.547,128.445 29.048,128.199L29.048,128.659Z" style="fill:none;fill-rule:nonzero;stroke:rgb(46,42,42);stroke-width:0.7px;stroke-linejoin:round;stroke-miterlimit:1.41421;"/>
            <path d="M40.94,128.885L40.94,125.586L37.004,125.586L37.004,128.885L36.529,128.885L36.529,122.009L37.004,122.009L37.004,125.154L40.94,125.154L40.94,122.009L41.41,122.009L41.41,128.885L40.94,128.885Z" style="fill:none;fill-rule:nonzero;stroke:rgb(46,42,42);stroke-width:0.7px;stroke-linejoin:round;stroke-miterlimit:1.41421;"/>
            <rect x="49.126" y="122.009" width="0.475" height="6.876" style="fill:none;stroke:rgb(46,42,42);stroke-width:0.7px;stroke-linejoin:round;stroke-miterlimit:1.41421;"/>
            <path d="M59.181,122.445L59.181,128.885L58.711,128.885L58.711,122.445L56.726,122.445L56.726,122.009L61.166,122.009L61.166,122.445L59.181,122.445Z" style="fill:none;fill-rule:nonzero;stroke:rgb(46,42,42);stroke-width:0.7px;stroke-linejoin:round;stroke-miterlimit:1.41421;"/>
            <path d="M68.287,128.885L68.287,122.009L71.5,122.009L71.5,122.445L68.762,122.445L68.762,125.202L71.303,125.202L71.303,125.634L68.762,125.634L68.762,128.453L71.658,128.453L71.658,128.885L68.287,128.885Z" style="fill:none;fill-rule:nonzero;stroke:rgb(46,42,42);stroke-width:0.7px;stroke-linejoin:round;stroke-miterlimit:1.41421;"/>
            <path d="M83.717,128.659C83.161,128.889 82.581,129.004 81.977,129.004C81.037,129.004 80.271,128.689 79.678,128.058C79.085,127.426 78.788,126.602 78.788,125.586C78.788,124.47 79.109,123.576 79.752,122.903C80.395,122.23 81.211,121.894 82.202,121.894C82.73,121.894 83.235,121.978 83.717,122.148L83.717,122.651C83.235,122.434 82.726,122.325 82.193,122.325C81.33,122.325 80.628,122.618 80.088,123.203C79.547,123.788 79.277,124.566 79.277,125.538C79.277,126.474 79.535,127.214 80.052,127.755C80.568,128.297 81.222,128.568 82.015,128.568C82.648,128.568 83.216,128.445 83.717,128.199L83.717,128.659Z" style="fill:none;fill-rule:nonzero;stroke:rgb(46,42,42);stroke-width:0.7px;stroke-linejoin:round;stroke-miterlimit:1.41421;"/>
            <path d="M93.063,122.445L93.063,128.885L92.593,128.885L92.593,122.445L90.608,122.445L90.608,122.009L95.048,122.009L95.048,122.445L93.063,122.445Z" style="fill:none;fill-rule:nonzero;stroke:rgb(46,42,42);stroke-width:0.7px;stroke-linejoin:round;stroke-miterlimit:1.41421;"/>
        </g>
    </g>
    <g transform="matrix(1,0,0,0.660634,9.60302,2.19154)">
        <rect x="-8.603" y="-1.804" width="228.329" height="130.813" style="fill:none;"/>
    </g>
    <g id="Artboard2" transform="matrix(0.950163,0,0,0.954524,0.0872758,0.549638)">
        <rect x="-0.092" y="-0.576" width="269.061" height="87.16" style="fill:none;"/>
    </g>
</svg>
